<svg width="1616" height="686" viewBox="0 0 1616 686" fill="none" xmlns="http://www.w3.org/2000/svg">
<rect x="175" y="159" width="864" height="336" rx="32" fill="#328CAE"/>
<ellipse cx="107.165" cy="549.165" rx="64" ry="64" transform="rotate(-40 107.165 549.165)" fill="#328CAE"/>
<line x1="105.385" y1="550.393" x2="195.759" y2="474.561" stroke="#328CAE" stroke-width="20"/>
<circle cx="988.068" cy="64.0682" r="27" transform="rotate(-75 988.068 64.0682)" fill="#328CAE"/>
<line x1="959.619" y1="173.026" x2="989.251" y2="62.4347" stroke="#328CAE" stroke-width="14"/>
<circle cx="1132.71" cy="584.711" r="50" transform="rotate(45 1132.71 584.711)" fill="#328CAE"/>
<line x1="1018.65" y1="472.335" x2="1137.75" y2="591.437" stroke="#328CAE" stroke-width="16"/>
<path d="M1244.92 425H1202.73V337.25H1120.47V425H1078.28V220.25H1120.47V303.219H1202.73V220.25H1244.92V425ZM1376.12 409.531C1366.09 421.719 1352.21 427.812 1334.49 427.812C1318.18 427.812 1305.71 423.125 1297.09 413.75C1288.56 404.375 1284.2 390.641 1284.01 372.547V272.844H1324.65V371.141C1324.65 386.984 1331.87 394.906 1346.31 394.906C1360.09 394.906 1369.56 390.125 1374.71 380.562V272.844H1415.49V425H1377.24L1376.12 409.531ZM1589.02 350.328C1589.02 374.703 1583.82 393.734 1573.41 407.422C1563 421.016 1548.47 427.812 1529.82 427.812C1513.32 427.812 1500.14 421.484 1490.3 408.828L1488.47 425H1451.91V209H1492.55V286.484C1501.93 275.516 1514.25 270.031 1529.54 270.031C1548.1 270.031 1562.63 276.875 1573.13 290.562C1583.72 304.156 1589.02 323.328 1589.02 348.078V350.328ZM1548.38 347.375C1548.38 332 1545.94 320.797 1541.07 313.766C1536.19 306.641 1528.93 303.078 1519.27 303.078C1506.33 303.078 1497.43 308.375 1492.55 318.969V379.016C1497.52 389.703 1506.52 395.047 1519.55 395.047C1532.68 395.047 1541.3 388.578 1545.43 375.641C1547.39 369.453 1548.38 360.031 1548.38 347.375Z" fill="#283E4A"/>
<path d="M393.188 327.266C393.188 346.391 390.094 363.031 383.906 377.188C377.719 391.25 369.141 402.547 358.172 411.078L392.203 437.797L365.344 461.562L321.75 426.547C316.781 427.391 311.625 427.812 306.281 427.812C289.312 427.812 274.172 423.734 260.859 415.578C247.547 407.422 237.234 395.797 229.922 380.703C222.609 365.516 218.906 348.078 218.812 328.391V318.266C218.812 298.109 222.422 280.391 229.641 265.109C236.953 249.734 247.219 237.969 260.438 229.812C273.75 221.562 288.938 217.438 306 217.438C323.062 217.438 338.203 221.562 351.422 229.812C364.734 237.969 375 249.734 382.219 265.109C389.531 280.391 393.188 298.062 393.188 318.125V327.266ZM350.438 317.984C350.438 296.516 346.594 280.203 338.906 269.047C331.219 257.891 320.25 252.312 306 252.312C291.844 252.312 280.922 257.844 273.234 268.906C265.547 279.875 261.656 296 261.562 317.281V327.266C261.562 348.172 265.406 364.391 273.094 375.922C280.781 387.453 291.844 393.219 306.281 393.219C320.438 393.219 331.312 387.688 338.906 376.625C346.5 365.469 350.344 349.25 350.438 327.969V317.984ZM518.338 409.531C508.307 421.719 494.432 427.812 476.713 427.812C460.401 427.812 447.932 423.125 439.307 413.75C430.776 404.375 426.416 390.641 426.229 372.547V272.844H466.869V371.141C466.869 386.984 474.088 394.906 488.526 394.906C502.307 394.906 511.776 390.125 516.932 380.562V272.844H557.713V425H519.463L518.338 409.531ZM679.629 310.953C674.098 310.203 669.223 309.828 665.004 309.828C649.629 309.828 639.551 315.031 634.77 325.438V425H594.129V272.844H632.52L633.645 290.984C641.801 277.016 653.098 270.031 667.536 270.031C672.036 270.031 676.254 270.641 680.192 271.859L679.629 310.953ZM789.03 425C787.155 421.344 785.796 416.797 784.952 411.359C775.108 422.328 762.311 427.812 746.561 427.812C731.655 427.812 719.28 423.5 709.436 414.875C699.686 406.25 694.811 395.375 694.811 382.25C694.811 366.125 700.764 353.75 712.671 345.125C724.671 336.5 741.967 332.141 764.561 332.047H783.264V323.328C783.264 316.297 781.436 310.672 777.78 306.453C774.217 302.234 768.546 300.125 760.764 300.125C753.921 300.125 748.53 301.766 744.592 305.047C740.749 308.328 738.827 312.828 738.827 318.547H698.186C698.186 309.734 700.905 301.578 706.342 294.078C711.78 286.578 719.467 280.719 729.405 276.5C739.342 272.188 750.499 270.031 762.874 270.031C781.624 270.031 796.483 274.766 807.452 284.234C818.514 293.609 824.046 306.828 824.046 323.891V389.844C824.139 404.281 826.155 415.203 830.092 422.609V425H789.03ZM755.421 396.734C761.421 396.734 766.952 395.422 772.014 392.797C777.077 390.078 780.827 386.469 783.264 381.969V355.812H768.077C747.733 355.812 736.905 362.844 735.592 376.906L735.452 379.297C735.452 384.359 737.233 388.531 740.796 391.812C744.358 395.094 749.233 396.734 755.421 396.734ZM898.431 272.844L899.696 290.422C910.571 276.828 925.149 270.031 943.431 270.031C959.556 270.031 971.556 274.766 979.431 284.234C987.306 293.703 991.337 307.859 991.524 326.703V425H950.884V327.688C950.884 319.062 949.009 312.828 945.259 308.984C941.509 305.047 935.274 303.078 926.556 303.078C915.118 303.078 906.54 307.953 900.821 317.703V425H860.181V272.844H898.431Z" fill="white"/>
</svg>
