<svg width="1216" height="792" viewBox="0 0 1216 792" fill="none" xmlns="http://www.w3.org/2000/svg">
<rect x="173" y="146" width="864" height="336" rx="32" fill="#328CAE"/>
<ellipse cx="105.165" cy="536.165" rx="64" ry="64" transform="rotate(-40 105.165 536.165)" fill="#328CAE"/>
<line x1="103.592" y1="537.639" x2="194.552" y2="461.315" stroke="#328CAE" stroke-width="20"/>
<circle cx="986.068" cy="51.0681" r="27" transform="rotate(-75 986.068 51.0681)" fill="#328CAE"/>
<line x1="956.302" y1="162.205" x2="986.567" y2="49.2552" stroke="#328CAE" stroke-width="14"/>
<circle cx="1130.71" cy="571.711" r="50" transform="rotate(45 1130.71 571.711)" fill="#328CAE"/>
<line x1="1016.65" y1="459.335" x2="1135.75" y2="578.437" stroke="#328CAE" stroke-width="16"/>
<path d="M523.922 721H481.734V633.25H399.469V721H357.281V516.25H399.469V599.219H481.734V516.25H523.922V721ZM655.119 705.531C645.088 717.719 631.213 723.812 613.494 723.812C597.182 723.812 584.713 719.125 576.088 709.75C567.557 700.375 563.197 686.641 563.01 668.547V568.844H603.651V667.141C603.651 682.984 610.869 690.906 625.307 690.906C639.088 690.906 648.557 686.125 653.713 676.562V568.844H694.494V721H656.244L655.119 705.531ZM868.02 646.328C868.02 670.703 862.817 689.734 852.411 703.422C842.004 717.016 827.473 723.812 808.817 723.812C792.317 723.812 779.145 717.484 769.301 704.828L767.473 721H730.911V505H771.551V582.484C780.926 571.516 793.254 566.031 808.536 566.031C827.098 566.031 841.629 572.875 852.129 586.562C862.723 600.156 868.02 619.328 868.02 644.078V646.328ZM827.379 643.375C827.379 628 824.942 616.797 820.067 609.766C815.192 602.641 807.926 599.078 798.27 599.078C785.332 599.078 776.426 604.375 771.551 614.969V675.016C776.52 685.703 785.52 691.047 798.551 691.047C811.676 691.047 820.301 684.578 824.426 671.641C826.395 665.453 827.379 656.031 827.379 643.375Z" fill="#283E4A"/>
<path d="M391.188 314.266C391.188 333.391 388.094 350.031 381.906 364.188C375.719 378.25 367.141 389.547 356.172 398.078L390.203 424.797L363.344 448.562L319.75 413.547C314.781 414.391 309.625 414.812 304.281 414.812C287.312 414.812 272.172 410.734 258.859 402.578C245.547 394.422 235.234 382.797 227.922 367.703C220.609 352.516 216.906 335.078 216.812 315.391V305.266C216.812 285.109 220.422 267.391 227.641 252.109C234.953 236.734 245.219 224.969 258.438 216.812C271.75 208.562 286.938 204.438 304 204.438C321.062 204.438 336.203 208.562 349.422 216.812C362.734 224.969 373 236.734 380.219 252.109C387.531 267.391 391.188 285.062 391.188 305.125V314.266ZM348.438 304.984C348.438 283.516 344.594 267.203 336.906 256.047C329.219 244.891 318.25 239.312 304 239.312C289.844 239.312 278.922 244.844 271.234 255.906C263.547 266.875 259.656 283 259.562 304.281V314.266C259.562 335.172 263.406 351.391 271.094 362.922C278.781 374.453 289.844 380.219 304.281 380.219C318.438 380.219 329.312 374.688 336.906 363.625C344.5 352.469 348.344 336.25 348.438 314.969V304.984ZM516.338 396.531C506.307 408.719 492.432 414.812 474.713 414.812C458.401 414.812 445.932 410.125 437.307 400.75C428.776 391.375 424.416 377.641 424.229 359.547V259.844H464.869V358.141C464.869 373.984 472.088 381.906 486.526 381.906C500.307 381.906 509.776 377.125 514.932 367.562V259.844H555.713V412H517.463L516.338 396.531ZM677.629 297.953C672.098 297.203 667.223 296.828 663.004 296.828C647.629 296.828 637.551 302.031 632.77 312.438V412H592.129V259.844H630.52L631.645 277.984C639.801 264.016 651.098 257.031 665.536 257.031C670.036 257.031 674.254 257.641 678.192 258.859L677.629 297.953ZM787.03 412C785.155 408.344 783.796 403.797 782.952 398.359C773.108 409.328 760.311 414.812 744.561 414.812C729.655 414.812 717.28 410.5 707.436 401.875C697.686 393.25 692.811 382.375 692.811 369.25C692.811 353.125 698.764 340.75 710.671 332.125C722.671 323.5 739.967 319.141 762.561 319.047H781.264V310.328C781.264 303.297 779.436 297.672 775.78 293.453C772.217 289.234 766.546 287.125 758.764 287.125C751.921 287.125 746.53 288.766 742.592 292.047C738.749 295.328 736.827 299.828 736.827 305.547H696.186C696.186 296.734 698.905 288.578 704.342 281.078C709.78 273.578 717.467 267.719 727.405 263.5C737.342 259.188 748.499 257.031 760.874 257.031C779.624 257.031 794.483 261.766 805.452 271.234C816.514 280.609 822.046 293.828 822.046 310.891V376.844C822.139 391.281 824.155 402.203 828.092 409.609V412H787.03ZM753.421 383.734C759.421 383.734 764.952 382.422 770.014 379.797C775.077 377.078 778.827 373.469 781.264 368.969V342.812H766.077C745.733 342.812 734.905 349.844 733.592 363.906L733.452 366.297C733.452 371.359 735.233 375.531 738.796 378.812C742.358 382.094 747.233 383.734 753.421 383.734ZM896.431 259.844L897.696 277.422C908.571 263.828 923.149 257.031 941.431 257.031C957.556 257.031 969.556 261.766 977.431 271.234C985.306 280.703 989.337 294.859 989.524 313.703V412H948.884V314.688C948.884 306.062 947.009 299.828 943.259 295.984C939.509 292.047 933.274 290.078 924.556 290.078C913.118 290.078 904.54 294.953 898.821 304.703V412H858.181V259.844H896.431Z" fill="white"/>
</svg>
